<?xml version="1.0" standalone="no"?>
<!DOCTYPE svg PUBLIC "-//W3C//DTD SVG 20010904//EN"
 "http://www.w3.org/TR/2001/REC-SVG-20010904/DTD/svg10.dtd">
<svg version="1.0" xmlns="http://www.w3.org/2000/svg"
 width="70.000000pt" height="70.000000pt" viewBox="0 0 70.000000 70.000000"
 preserveAspectRatio="xMidYMid meet">
<metadata>
Created by potrace 1.14, written by Peter Selinger 2001-2017
</metadata>
<g transform="translate(0.000000,70.000000) scale(0.100000,-0.100000)"
fill="#000000" stroke="none">
<path d="M206 622 c-18 -29 -26 -109 -14 -134 7 -15 4 -18 -23 -18 -30 0 -31
-1 -17 -17 35 -41 21 -73 -42 -99 -22 -9 -43 -28 -54 -49 -11 -19 -22 -35 -26
-35 -4 0 -10 -12 -13 -28 -4 -22 2 -34 37 -68 48 -46 76 -54 189 -57 81 -3 86
0 113 48 6 11 10 29 8 40 -3 22 12 36 31 28 7 -2 25 -37 40 -78 18 -51 31 -72
40 -69 7 3 16 12 19 19 6 17 -1 123 -10 136 -3 6 18 8 53 5 33 -2 71 1 88 8
l30 12 -23 20 c-12 10 -26 18 -30 17 -4 0 -14 3 -23 8 -14 7 -7 18 42 66 53
52 76 85 49 68 -6 -4 -17 -1 -25 5 -8 7 -15 8 -15 3 0 -8 -40 -22 -140 -50 -8
-3 -37 -5 -65 -6 -27 -2 -56 -6 -63 -11 -8 -4 -23 -1 -38 9 -13 9 -29 13 -34
10 -6 -3 -10 -1 -10 4 0 6 4 11 8 11 5 0 9 7 9 15 0 8 -3 15 -7 15 -6 0 -25
54 -36 104 -3 12 -7 28 -9 36 -2 8 -4 19 -4 23 -1 5 -5 6 -10 3 -5 -4 -11 -1
-13 6 -3 9 -6 9 -12 0z"/>
</g>
</svg>
